<svg xmlns="http://www.w3.org/2000/svg" xmlns:xlink="http://www.w3.org/1999/xlink" version="1.1" width="96" height="96" viewBox="4.8 -9.6 96.0 129.6">
<path d="M43.876 82.048v0c-12.548 0-26.88-3.344-40.36-9.412-0.928-0.416-1.4-1.48-1.080-2.448 0.324-0.976 1.332-1.548 2.324-1.328 1.796 0.4 3.536 0.584 5.18 0.584v0c14.82 0 22.24-15.952 30.096-32.84 8.188-17.588 16.652-35.776 34.612-35.776 5.452 0 11.32 1.672 17.928 5.092 0.744 0.384 1.164 1.176 1.072 1.996-0.084 0.828-0.68 1.508-1.484 1.716-6.164 1.596-6.92 9.656-7.648 22.68-0.672 12.060-1.436 25.724-8.868 36.672-5.712 8.424-16.992 13.064-31.772 13.064zM15.076 72.892c9.88 3.352 19.836 5.156 28.804 5.156 13.42 0 23.52-4.016 28.476-11.312 6.812-10.032 7.54-23.1 8.18-34.648 0.592-10.616 1.124-20.048 6.564-24.344-4.524-1.928-8.696-2.916-12.428-2.916-15.416 0-22.976 16.256-30.988 33.468-7.216 15.484-14.648 31.456-28.608 34.596z" fill="#000000"/>
	<path d="M54.416 81.124c-0.6 0-1.212-0.268-1.592-0.796-5.752-7.68-7.368-18.32-4.304-28.456 2.56-8.46 8.116-15.46 15.248-19.188 5.804-3.032 12.232-3.652 18.092-1.748 0.468 0.156 0.916 0.32 1.344 0.492 1.032 0.412 1.532 1.572 1.116 2.588-0.408 1.028-1.564 1.532-2.592 1.112-0.368-0.148-0.744-0.276-1.116-0.412-4.812-1.568-10.14-1.040-14.992 1.492-6.188 3.232-11.032 9.352-13.272 16.8-2.66 8.792-1.256 18.332 3.672 24.9 0.664 0.892 0.484 2.14-0.408 2.804-0.36 0.284-0.784 0.412-1.196 0.412z" fill="#000000"/>
	<path d="M37.836 95.172c-1.1 0-2-0.892-2-2v-12c0-1.1 0.9-2 2-2 1.104 0 2 0.9 2 2v12c0 1.108-0.896 2-2 2z" fill="#000000"/>
	<path d="M45.836 95.172c-1.1 0-2-0.892-2-2v-12c0-1.1 0.9-2 2-2 1.104 0 2 0.9 2 2v12c0 1.108-0.896 2-2 2z" fill="#000000"/>
	<path d="M73.584 19.288c-3.312 0-6-2.752-6-6.148s2.688-6.156 6-6.156c3.304 0 6 2.756 6 6.156 0 3.392-2.684 6.148-6 6.148zM73.584 10.992c-1.1 0-2 0.968-2 2.152 0 1.188 0.9 2.152 2 2.152s2-0.964 2-2.152c0-1.192-0.896-2.152-2-2.152z" fill="#000000"/>
<text x="0.0" y="112.8" font-size="4.8" font-weight="bold" font-family="Helvetica Neue, Helvetica, Arial-Unicode, Arial, Sans-serif" fill="#000000">Created by iconsmind.com</text><text x="0.0" y="117.6" font-size="4.8" font-weight="bold" font-family="Helvetica Neue, Helvetica, Arial-Unicode, Arial, Sans-serif" fill="#000000">from the Noun Project</text></svg>