<svg xmlns="http://www.w3.org/2000/svg" xmlns:xlink="http://www.w3.org/1999/xlink" version="1.1" width="96" height="96" viewBox="4.8 -9.6 96.0 129.6">
<path d="M60.476 59.056c-10.556-2.332-14.36-2.316-24.9 0.016-0.588 0.128-1.088 0.552-1.36 1.092s-0.276 1.24-0.020 1.788c1.288 2.788 3.636 5.428 6.348 8.352 1.952 2.096 4.168 4.18 6.22 6.944 0.376 0.512 0.972 0.752 1.604 0.752 0.004 0 0.012 0 0.016 0 0.64 0 1.232-0.252 1.608-0.772 1.916-2.664 3.936-5.152 5.728-7.168 2.688-3.032 5.008-5.512 6.18-8.456 0.22-0.548 0.188-1.084-0.084-1.6-0.284-0.524-0.768-0.824-1.34-0.948zM52.728 67.672c-1.368 1.54-2.868 3.24-4.384 5.16-1.664-2.052-3.344-3.852-4.864-5.488-1.668-1.796-3.18-3.42-4.304-4.968 7.124-1.384 10.668-1.376 17.848 0.032-1.088 1.64-2.608 3.356-4.296 5.264z" fill="#000000"/>
	<path d="M37.996 47.208c0-3.404-2.764-6.172-6.168-6.172s-6.168 2.768-6.168 6.172c0 3.408 2.764 6.176 6.168 6.176s6.168-2.772 6.168-6.176zM31.828 49.384c-1.196 0-2.168-0.976-2.168-2.176s0.972-2.172 2.168-2.172 2.168 0.976 2.168 2.172-0.976 2.176-2.168 2.176z" fill="#000000"/>
	<path d="M64.116 41.032c-3.408 0-6.172 2.768-6.172 6.172 0 3.408 2.764 6.176 6.172 6.176 3.4 0 6.164-2.768 6.164-6.176 0-3.4-2.764-6.172-6.164-6.172zM64.116 49.384c-1.196 0-2.172-0.976-2.172-2.176s0.976-2.172 2.172-2.172 2.164 0.976 2.164 2.172-0.968 2.176-2.164 2.176z" fill="#000000"/>
	<path d="M83.416 15.14c-0.376-0.388-0.892-1.14-1.432-1.14h-28.236c-1.804 0-3.68-0.312-5.7-0.004-2.020-0.308-3.888 0.004-5.696 0.004h-28.232c-0.54 0-1.056 0.752-1.428 1.14-6.092 6.24-14.008 21.664-12.536 31.216 0.524 3.4 2.204 6.084 4.86 7.504 1.844 0.984 3.644 1.552 5.352 1.552 2.992 0 5.416-1.46 7.556-3.764 1.584 22.536 11.652 34.004 30.052 34.004 18.444 0 28.52-11.496 30.060-34.14 2.18 2.4 4.64 3.964 7.704 3.964 1.712 0 3.508-0.5 5.352-1.484 2.656-1.42 4.336-4.236 4.86-7.636 1.468-9.552-6.444-24.976-12.536-31.216zM10.524 51.476c-1.040 0-2.284-0.336-3.536-1.008-1.548-0.828-2.504-2.82-2.84-4.988-1.128-7.34 4.872-19.48 10.836-27.48h19.040c-5.188 4-8.708 12.032-11.928 18.544-1.084 2.188-1.988 4.584-3.068 6.528-0.704 0.312-1.028 1.272-1.028 2.088 0 0.072 0 0.132 0 0.204 0 3.588-4.728 6.112-7.476 6.112zM47.972 81.664c-17.628 0-25.984-11.236-26.268-35.252 1.368-2.332 2.664-5.444 3.976-8.092 4.432-8.956 9.008-20.32 17.032-20.32h5.256c0.024 0 0.056 0 0.080 0v0c0.004 0 0.004 0 0.004 0 0.024 0 0.056 0 0.080 0h5.26c8.024 0 12.6 11.364 17.032 20.32 1.264 2.552 2.516 5.3 3.82 7.56-0.228 24.204-8.58 35.784-26.272 35.784zM91.992 45.48c-0.336 2.168-1.252 3.892-2.796 4.72-1.252 0.672-2.416 1.144-3.46 1.144-2.812 0-5.204-2.568-7.476-6.3-0.016-0.684-0.392-1.224-0.92-1.576-1.116-1.988-2.212-4.692-3.328-6.944-3.224-6.508-6.748-14.524-11.932-18.524h19.040c5.96 8 12.004 20.14 10.872 27.48z" fill="#000000"/>
<text x="0.0" y="112.8" font-size="4.8" font-weight="bold" font-family="Helvetica Neue, Helvetica, Arial-Unicode, Arial, Sans-serif" fill="#000000">Created by iconsmind.com</text><text x="0.0" y="117.6" font-size="4.8" font-weight="bold" font-family="Helvetica Neue, Helvetica, Arial-Unicode, Arial, Sans-serif" fill="#000000">from the Noun Project</text></svg>