<svg xmlns="http://www.w3.org/2000/svg" xmlns:xlink="http://www.w3.org/1999/xlink" version="1.1" width="96" height="96" viewBox="4.8 -9.6 96.0 129.6">
<path d="M6.744 53.932c-0.836 0-1.616-0.532-1.904-1.368-2.104-6.32-0.916-23.080 16.396-31.688 5.252-2.62 10.356-3.944 15.14-3.944 12.948 0 20.396 9.36 23.964 13.86 0.632 0.796 0.728 2.132 0 2.852-3.168 3.172-7.4 6.164-12.92 9.144-9.84 5.308-20.18 7.096-28.488 8.54-4.492 0.776-8.376 1.448-11.568 2.504-0.208 0.072-0.42 0.1-0.62 0.1zM36.376 20.932c-4.168 0-8.664 1.188-13.368 3.532-13.548 6.74-15.56 19.084-14.784 24.932 3.012-0.808 6.432-1.416 10.024-2.028 8.432-1.456 18.004-3.108 27.264-8.108 4.444-2.404 7.964-4.76 10.7-7.232-3.616-4.4-9.956-11.096-19.836-11.096z" fill="#000000"/>
	<path d="M66.036 81.412c-5.484 0-8.86-3.38-10.88-5.4-0.34-0.344-0.784-0.78-1.052-1l-6.52 0.020c-6.244 0-13.392-0.104-20.212-1.252-1.732 3.848-5.624 6.156-10.584 6.156-1.764 0-3.54-0.292-5.136-0.868-1.448-0.516-3.42-1.416-3.864-3.304-0.468-2.048 1.108-3.628 2.628-5.18 0.52-0.524 1.076-1.084 1.564-1.664-3.604-0.704-7.076-1.196-9.736-0.868-0.704 0.084-1.416-0.204-1.836-0.764-0.432-0.58-0.536-1.324-0.252-1.98 3.004-7.24 11.732-8.752 21.824-10.492 8.436-1.46 18-3.116 27.26-8.116 14.48-7.808 16.592-13.936 18.636-19.88 0.788-2.276 1.6-4.636 3.096-6.916 2.872-4.4 6.536-5.312 9.096-5.312 4.376 0 9.232 2.796 12.672 7.268 2.916 3.808 3.952 8.964 2.78 13.796-0.852 3.524-2.772 6.232-5.264 7.404-1.672 0.78-3.416 1.196-5.18 1.196v0c-2.428 0-4.796-0.82-6.516-2.196-4.584 4.368-6.572 9.28-8.484 14.056-0.72 1.764-1.408 3.476-2.188 5.072-0.328 4.484 2.064 7.868 3.992 10.6 1.612 2.296 3.016 4.272 2.104 6.392-0.896 2.084-3.56 2.752-6.296 3.148-0.6 0.052-1.128 0.084-1.652 0.084zM54.456 71.012c1.352 0 2.312 0.96 3.528 2.176 1.956 1.948 4.712 4.684 9.192 4.148 2.64-0.388 3.176-0.848 3.236-0.904-0.18-0.084-1.104-1.412-1.788-2.368-2.108-2.992-5.3-7.528-4.664-13.672 0.024-0.252 0.088-0.476 0.204-0.7 0.808-1.588 1.5-3.316 2.216-5.096 2.184-5.416 4.652-11.556 11.012-16.86 0.428-0.36 1-0.524 1.556-0.444s1.056 0.38 1.376 0.836c0.732 1.048 2.492 2.1 4.78 2.1v0c1.164 0 2.328-0.272 3.468-0.816 1.376-0.648 2.532-2.416 3.084-4.72 0.688-2.836 0.504-7.068-2.080-10.416-2.708-3.524-6.336-5.716-9.492-5.716-2.296 0-4.24 1.18-5.752 3.5-1.224 1.876-1.916 3.9-2.664 6.040-2.188 6.344-4.668 13.54-20.528 22.084-9.836 5.308-20.172 7.088-28.476 8.536-7.328 1.268-13.436 2.336-16.756 5.26 3.016 0.204 6.4 0.852 9.652 1.568 0.564 0.112 1.048 0.472 1.32 0.972 0.28 0.5 0.332 1.088 0.144 1.636-0.752 2.184-2.416 3.864-3.752 5.228-0.424 0.42-1.008 1.024-1.34 1.432 0.216 0.112 0.556 0.268 1.068 0.456 1.172 0.416 2.488 0.64 3.8 0.64 1.832 0 6.22-0.484 7.332-4.916 0.252-1.032 1.268-1.68 2.328-1.476 6.972 1.38 14.568 1.492 21.14 1.492h6.856z" fill="#000000"/>
	<path d="M83.596 29.012c0 1.105-0.895 2-2 2s-2-0.895-2-2c0-1.105 0.895-2 2-2s2 0.895 2 2z" fill="#000000"/>
<text x="0.0" y="112.8" font-size="4.8" font-weight="bold" font-family="Helvetica Neue, Helvetica, Arial-Unicode, Arial, Sans-serif" fill="#000000">Created by iconsmind.com</text><text x="0.0" y="117.6" font-size="4.8" font-weight="bold" font-family="Helvetica Neue, Helvetica, Arial-Unicode, Arial, Sans-serif" fill="#000000">from the Noun Project</text></svg>