<svg xmlns="http://www.w3.org/2000/svg" xmlns:xlink="http://www.w3.org/1999/xlink" version="1.1" width="96" height="96" viewBox="4.8 -9.6 96.0 129.6">
<path d="M47.948 92.704v0c-4.552 0-9.184-0.92-15.496-3.092-2.924-1.556-4.3-4.704-4.3-7.080v-10.336c0-2.82 1.784-6.9 5.012-6.9h29.976c3 0 5.016 3.212 5.016 6.204v10.616c0 2.5-1.5 5.9-4.016 7.252-6.864 2.376-11.612 3.336-16.192 3.336zM33.168 69.296c-0.308 0.188-1.012 1.672-1.012 2.892v10.336c0 1.28 0.888 2.892 1.9 3.436 5.568 1.884 9.812 2.744 13.892 2.744v0c4.168 0 8.392-0.86 14.592-2.992 0.668-0.392 1.612-2.236 1.612-3.584v-10.616c0-1.204-0.736-2.204-1.008-2.204l-29.976-0.012z" fill="#000000"/>
	<path d="M30.904 67.96c-0.708 0-1.396-0.384-1.76-1.056-4.748-8.744-7.94-19.72-7.94-27.324 0-14.608 12.092-26.5 26.952-26.5 14.856 0 26.948 11.888 26.948 26.5 0 7.604-3.188 18.584-7.932 27.324-0.532 0.968-1.748 1.328-2.712 0.796-0.976-0.524-1.34-1.736-0.804-2.712 4.388-8.080 7.448-18.524 7.448-25.412 0-12.408-10.292-22.5-22.948-22.5s-22.952 10.096-22.952 22.508c0 6.884 3.068 17.332 7.456 25.416 0.528 0.968 0.168 2.18-0.804 2.712-0.304 0.164-0.632 0.248-0.952 0.248z" fill="#000000"/>
	<path d="M17.516 44.34c-6.124 0-12.872-2.516-16.78-5.028-0.796-0.508-1.124-1.512-0.788-2.396 3.36-8.84 14.192-17.576 30.024-15.868 1.096 0.12 1.892 1.104 1.772 2.204-0.116 1.092-1.1 1.9-2.2 1.772-12.756-1.372-21.72 4.892-25.176 11.776 4.972 2.664 13.112 4.824 18.028 2.66 1.016-0.44 2.192 0.020 2.636 1.028 0.444 1.012-0.020 2.192-1.028 2.636-1.944 0.856-4.168 1.216-6.488 1.216z" fill="#000000"/>
	<path d="M78.724 44.504c-2.172 0-4.272-0.344-6.164-1.176-1.016-0.444-1.476-1.624-1.032-2.632 0.444-1.012 1.624-1.476 2.64-1.028 4.872 2.144 12.624-0.196 17.476-2.856-3.44-6.888-12.344-13.164-25.104-11.784-1.084 0.116-2.084-0.676-2.208-1.772-0.116-1.1 0.68-2.084 1.772-2.204 15.772-1.704 26.596 7.032 29.952 15.872 0.328 0.88 0 1.876-0.788 2.392-3.836 2.46-10.452 5.188-16.544 5.188z" fill="#000000"/>
	<path d="M44.156 17.296h-12c-6.616 0-12-5.38-12-12 0-1.108 0.896-2 2-2s2 0.892 2 2c0 4.412 3.588 8 8 8h12c1.104 0 2 0.896 2 2s-0.9 2-2 2z" fill="#000000"/>
	<path d="M66.152 17.296h-14c-1.1 0-2-0.896-2-2s0.9-2 2-2h14c4.812 0 7-4.148 7-8 0-1.108 0.9-2 2-2s2 0.892 2 2c0 6.956-4.624 12-11 12z" fill="#000000"/>
	<path d="M38.156 83.296c-1.104 0-2-0.9-2-2v-8c0-1.108 0.896-2 2-2s2 0.892 2 2v8c0 1.104-0.9 2-2 2z" fill="#000000"/>
	<path d="M58.152 83.296c-1.1 0-2-0.9-2-2v-8c0-1.108 0.9-2 2-2s2 0.892 2 2v8c0 1.104-0.9 2-2 2z" fill="#000000"/>
	<path d="M38.156 46.52c-3.308 0-6-2.692-6-6s2.692-6 6-6 6 2.692 6 6c0 3.312-2.692 6-6 6zM38.156 38.52c-1.104 0-2 0.9-2 2 0 1.104 0.896 2 2 2s2-0.896 2-2c0-1.104-0.9-2-2-2z" fill="#000000"/>
	<path d="M58.152 46.52c-3.304 0-6-2.692-6-6s2.696-6 6-6c3.312 0 6 2.692 6 6 0 3.312-2.688 6-6 6zM58.152 38.52c-1.1 0-2 0.9-2 2 0 1.104 0.9 2 2 2s2-0.896 2-2c0-1.104-0.9-2-2-2z" fill="#000000"/>
<text x="0.0" y="112.8" font-size="4.8" font-weight="bold" font-family="Helvetica Neue, Helvetica, Arial-Unicode, Arial, Sans-serif" fill="#000000">Created by iconsmind.com</text><text x="0.0" y="117.6" font-size="4.8" font-weight="bold" font-family="Helvetica Neue, Helvetica, Arial-Unicode, Arial, Sans-serif" fill="#000000">from the Noun Project</text></svg>