<svg xmlns="http://www.w3.org/2000/svg" xmlns:xlink="http://www.w3.org/1999/xlink" version="1.1" width="96" height="96" viewBox="4.8 -9.6 96.0 129.6">
<path d="M48 87.236c-16.76 0-36.752-8.032-36.752-46.292 0-0.104 0-0.228 0.004-0.332-3.556-0.832-6.624-3.052-8.7-6.312-2.2-3.448-3.020-7.672-2.304-11.892 1.472-8.72 9.048-14.836 17.252-13.444 4.032 0.68 7.548 3.172 9.752 6.82 6.12-3.504 13.248-5.344 20.748-5.344 7.496 0 14.628 1.84 20.76 5.344 2.188-3.648 5.704-6.14 9.744-6.82 8.196-1.392 15.78 4.74 17.252 13.444 0.72 4.22-0.092 8.432-2.304 11.892-2.080 3.256-5.132 5.472-8.696 6.308 0 0.104 0 0.228 0 0.332-0.004 38.264-19.992 46.296-36.756 46.296zM15.22 12.768c-5.292 0-10.036 4.428-11.028 10.308-0.548 3.244 0.064 6.46 1.728 9.080 1.624 2.556 4.060 4.22 6.852 4.68 0.044 0.008 0.72 0.040 0.756 0.040 0.544 0.040 1.032 0.292 1.376 0.7s0.508 0.928 0.456 1.46c-0.068 0.752-0.116 1.32-0.116 1.908 0 28.068 11.020 42.284 32.752 42.284 21.736 0 32.752-14.228 32.752-42.284 0-0.548-0.064-1.080-0.092-1.596-0.048-0.532 0.1-1.204 0.444-1.612 0.344-0.404 0.82-0.804 1.36-0.848l0.476-0.020c3.080-0.488 5.508-2.152 7.132-4.696 1.664-2.612 2.272-5.84 1.736-9.080-1.080-6.464-6.72-11.18-12.632-10.172-3.408 0.58-6.304 2.992-7.756 6.476-0.244 0.548-0.696 0.96-1.256 1.14-0.572 0.172-1.18 0.084-1.672-0.24-5.892-3.828-12.968-5.852-20.472-5.852s-14.592 2.028-20.476 5.856c-0.492 0.316-1.112 0.412-1.676 0.24-0.568-0.176-1.032-0.596-1.26-1.144-1.464-3.484-4.364-5.904-7.768-6.48-0.552-0.1-1.084-0.148-1.616-0.148z" fill="#000000"/>
	<path d="M48 80.984c-14.168 0-25.692-11.476-25.692-25.58 0-2.928 0.488-5.656 1.528-8.5-0.808-1.752-1.528-3.912-1.528-6.688 0-9.672 7.772-20.916 17.796-20.916h15.796c10.024 0 17.788 11.248 17.788 20.916 0 2.32-0.452 4.376-1.532 6.712 1.064 2.864 1.532 5.468 1.532 8.328 0.008 14.188-11.524 25.728-25.688 25.728zM40.096 23.304c-7.64 0-13.796 9.252-13.796 16.916 0 2.252 0.596 3.912 1.496 5.704 0.256 0.516 0.28 1.1 0.068 1.632-1.068 2.676-1.564 5.16-1.564 7.848 0 11.9 9.732 21.58 21.692 21.58 11.968 0 21.692-9.752 21.692-21.736 0-2.632-0.46-4.928-1.564-7.672-0.212-0.532-0.188-1.12 0.072-1.64 1.064-2.116 1.492-3.776 1.492-5.732 0-7.664-6.156-16.916-13.788-16.916h-15.796l-0.004 0.016z" fill="#000000"/>
	<path d="M36.152 41.416c-3.28 0-5.948-2.664-5.948-5.94 0-3.28 2.668-5.944 5.948-5.944s5.948 2.672 5.948 5.944c-0.004 3.276-2.672 5.94-5.948 5.94zM36.152 33.528c-1.076 0-1.948 0.868-1.948 1.94s0.876 1.948 1.948 1.948c1.080 0 1.948-0.884 1.948-1.944-0.004-1.064-0.868-1.944-1.948-1.944z" fill="#000000"/>
	<path d="M44.056 69.048c-3.28 0-5.948-2.664-5.948-5.936 0-3.268 2.668-5.94 5.948-5.94 3.276 0 5.944 2.672 5.944 5.94 0 3.272-2.668 5.936-5.944 5.936zM44.056 61.148c-1.080 0-1.948 0.884-1.948 1.952s0.876 1.932 1.948 1.932 1.944-0.872 1.944-1.932c0-1.068-0.876-1.952-1.944-1.952z" fill="#000000"/>
	<path d="M59.844 41.416c-3.272 0-5.936-2.664-5.936-5.94 0-3.28 2.664-5.944 5.936-5.944 3.28 0 5.952 2.672 5.952 5.944 0 3.276-2.672 5.94-5.952 5.94zM59.844 33.528c-1.072 0-1.936 0.868-1.936 1.94s0.876 1.944 1.936 1.944c1.080 0 1.952-0.884 1.952-1.944 0-1.064-0.876-1.94-1.952-1.94z" fill="#000000"/>
	<path d="M52 47.304h-8c-1.1 0-2-0.904-2-2 0-1.1 0.9-2 2-2h8c1.1 0 2 0.9 2 2s-0.9 2-2 2z" fill="#000000"/>
<text x="0.0" y="112.8" font-size="4.8" font-weight="bold" font-family="Helvetica Neue, Helvetica, Arial-Unicode, Arial, Sans-serif" fill="#000000">Created by iconsmind.com</text><text x="0.0" y="117.6" font-size="4.8" font-weight="bold" font-family="Helvetica Neue, Helvetica, Arial-Unicode, Arial, Sans-serif" fill="#000000">from the Noun Project</text></svg>