<svg xmlns="http://www.w3.org/2000/svg" xmlns:xlink="http://www.w3.org/1999/xlink" version="1.1" width="96" height="96" viewBox="4.8 -9.6 96.0 129.6">
<path d="M33.26 94.524c-1.1 0-2-0.892-2-2v-11.436c0-1.088 0.9-2 2-2 1.104 0 2 0.912 2 2v11.436c0 1.108-0.892 2-2 2z" fill="#000000"/>
	<path d="M49.26 94.524c-1.1 0-2-0.892-2-2v-11.116c0-1.096 0.9-2 2-2s2.004 0.904 2.004 2v11.116c0 1.108-0.896 2-2.004 2z" fill="#000000"/>
	<path d="M47.34 83.408c-8.304 0-23.564-0.932-28.076-4.476-7.248-5.68-4-26.040-2.48-31 2.248-7.312 9.316-11.172 20.46-11.172 6.024 0 11.72 1.12 14.876 1.932 2.704-9.688 8.176-18.972 11.58-24.148-0.22-3.224 0.54-9.596 1.18-11.668 0.196-0.608 0.664-1.092 1.264-1.296 0.6-0.2 1.264-0.108 1.788 0.252 1.452 1.016 5.508 6.116 6.88 9.804 0.16 0.024 0.336 0.052 0.528 0.076 3.68 0.472 7.616 1.828 15.22 13.052 5.092 7.516 6.632 13.312 4.564 17.212-1.376 2.6-4.556 3.952-7.5 3.384-4.572-0.888-10.048-5.188-13.5-9.4-1.628 2.908-3.416 7.952-4.188 12.116 4.084 6.568 5.132 25.060-3.516 32.368-3.084 2.576-13.276 2.964-19.080 2.964zM37.252 40.756c-9.336 0-14.928 2.812-16.632 8.344-1.892 6.18-3.464 23.084 1.12 26.68 2.592 2.040 13.84 3.624 25.604 3.624 10.332 0 15.516-1.224 16.488-2.024 7.292-6.176 5.612-23.568 2.416-27.62-0.344-0.432-0.492-1-0.408-1.556 0.928-5.876 3.992-14.336 6.9-17.1 0.428-0.416 1.032-0.596 1.608-0.532 0.592 0.076 1.12 0.412 1.444 0.912 2.592 4.032 8.532 9.148 12.584 9.924 0.204 0.040 0.42 0.068 0.644 0.068 0.552 0 1.896-0.132 2.56-1.396 0.596-1.124 1.376-4.664-4.344-13.088-7.216-10.648-10.344-11.052-12.412-11.32-0.748-0.088-1.584-0.204-2.44-0.588-0.584-0.264-1-0.796-1.132-1.416-0.304-1.46-1.828-3.86-3.24-5.76-0.3 2.584-0.484 5.588-0.284 6.844 0.080 0.492-0.036 1-0.312 1.416-3.416 5.144-9.524 15.3-11.924 25.48-0.132 0.556-0.484 1.024-0.976 1.296-0.5 0.264-1.084 0.32-1.616 0.14-2.212-0.768-8.944-2.328-15.648-2.328z" fill="#000000"/>
	<path d="M1.996 75.364c-0.856 0-1.62-0.552-1.9-1.356-0.272-0.816 0-1.708 0.68-2.236 1.904-1.444 2.332-6.924 2.716-11.768 0.6-7.648 1.284-16.312 8.24-16.312 2.252 0 4.9 1.040 8.084 3.164 0.752 0.5 1.084 1.44 0.784 2.3-0.28 0.852-1.052 1.416-2.008 1.36h-0.008c-1.664 0-2.116 2.172-2.636 7.36-0.696 6.964-1.736 17.488-13.952 17.488zM11.732 47.692c-3.020 0-3.668 5.232-4.252 12.628-0.304 3.856-0.596 7.58-1.568 10.444 4.508-1.632 5.388-6.516 6.060-13.28 0.332-3.348 0.692-6.984 2.388-9.116-1.22-0.532-2.068-0.676-2.628-0.676z" fill="#000000"/>
	<path d="M21.26 94.524c-1.1 0-2-0.892-2-2v-13.5c0-1.108 0.9-2 2-2 1.104 0 2 0.892 2 2v13.5c0 1.108-0.892 2-2 2z" fill="#000000"/>
	<path d="M61.264 94.524c-1.1 0-2-0.892-2-2v-12c0-1.1 0.9-2 2-2 1.096 0 2 0.9 2 2v12c0 1.108-0.896 2-2 2z" fill="#000000"/>
<text x="0.0" y="112.8" font-size="4.8" font-weight="bold" font-family="Helvetica Neue, Helvetica, Arial-Unicode, Arial, Sans-serif" fill="#000000">Created by iconsmind.com</text><text x="0.0" y="117.6" font-size="4.8" font-weight="bold" font-family="Helvetica Neue, Helvetica, Arial-Unicode, Arial, Sans-serif" fill="#000000">from the Noun Project</text></svg>