<svg xmlns="http://www.w3.org/2000/svg" xmlns:xlink="http://www.w3.org/1999/xlink" xmlns:sketch="http://www.bohemiancoding.com/sketch/ns" width="100px" height="100px" viewBox="5.0 -10.0 100.0 135.0" version="1.1">
    <!-- Generator: Sketch 3.0.2 (7799) - http://www.bohemiancoding.com/sketch -->
    <title>chart_pie_8</title>
    <description>Created with Sketch.</description>
    <defs/>
    <g id="Statistics" stroke="none" stroke-width="1" fill="none" fill-rule="evenodd" sketch:type="MSPage">
        <path d="M74.4610001,19.5548874 C82.2497668,28.0877399 87,39.4417685 87,51.9052734 C87,78.4149414 65.509668,99.9052734 39,99.9052734 C12.490332,99.9052734 -9,78.4149414 -9,51.9052734 C-9,25.3956054 12.490332,3.90527344 39,3.90527344 L39,51.9052734 L74.4610001,19.5548874 L74.4610001,19.5548874 Z M73.0248165,15.4859728 L74.1174211,14.4637077 L73.0978827,13.3685583 C65.5042312,5.21174631 54.9033256,0.492857143 43.5520833,0.492857143 L42.0520833,0.492857143 L42.0520833,1.99285714 L42.0520833,41.0071429 L42.0520833,44.4647487 L44.5768998,42.1024744 L73.0248165,15.4859728 Z M45.0826736,3.52380372 C54.5177013,3.90585683 63.2974349,7.80974496 69.8878487,14.3643756 L45.1198599,37.4861237 L45.0826736,3.52380372 Z" id="chart_pie_8" fill="#000000" sketch:type="MSShapeGroup" transform="translate(43.500000, 49.905273) scale(-1, 1) translate(-43.500000, -49.905273) "/>
    </g>
<text x="0.0" y="117.5" font-size="5.0" font-weight="bold" font-family="Helvetica Neue, Helvetica, Arial-Unicode, Arial, Sans-serif" fill="#000000">Created by Pham Thi Dieu Linh</text><text x="0.0" y="122.5" font-size="5.0" font-weight="bold" font-family="Helvetica Neue, Helvetica, Arial-Unicode, Arial, Sans-serif" fill="#000000">from the Noun Project</text></svg>