<svg xmlns="http://www.w3.org/2000/svg" xmlns:xlink="http://www.w3.org/1999/xlink" version="1.1" id="Layer_1" x="0px" y="0px" width="80px" height="80px" viewBox="4.0 -8.0 80.0 108.0" enable-background="new 0 0 80 80" xml:space="preserve">
<g>
	<g>
		<path fill="#000000" d="M41,52c-2.2,0-4.2-0.9-5.7-2.4l1.4-1.4c1.1,1.2,2.7,1.8,4.3,1.8c3.3,0,6-2.7,6-6s-2.7-6-6-6s-6,2.7-6,6h-2    c0-4.4,3.6-8,8-8s8,3.6,8,8S45.4,52,41,52z"/>
	</g>
	<g>
		<polygon fill="#000000" points="34,46.4 29.3,41.7 30.7,40.3 34,43.6 37.3,40.3 38.7,41.7   "/>
	</g>
</g>
<g>
	<path fill="#000000" d="M64.9,67H14.1c-1.7,0-3.1-1.4-3.1-3.1V24.1c0-1.7,1.4-3.1,3.1-3.1h50.8c1.7,0,3.1,1.4,3.1,3.1v39.8   C68,65.6,66.6,67,64.9,67z M14.1,23c-0.6,0-1.1,0.5-1.1,1.1v39.8c0,0.6,0.5,1.1,1.1,1.1h50.8c0.6,0,1.1-0.5,1.1-1.1V24.1   c0-0.6-0.5-1.1-1.1-1.1H14.1z"/>
</g>
<g>
	<path fill="#000000" d="M65,18h-2c0-1-0.4-1-0.9-1H16.9c-0.5,0-0.9,0-0.9,1h-2c0-2,1.3-3,2.9-3h45.3C63.7,15,65,16,65,18z"/>
</g>
<g>
	<path fill="#000000" d="M60,13h-2c0-1-0.4-1-0.5-1H21.5c-0.1,0-0.5,0-0.5,1h-2c0-2,1.1-3,2.5-3h36.1C58.9,10,60,11,60,13z"/>
</g>
<text x="0.0" y="94.0" font-size="4.0" font-weight="bold" font-family="Helvetica Neue, Helvetica, Arial-Unicode, Arial, Sans-serif" fill="#000000">Created by BraveBros.</text><text x="0.0" y="98.0" font-size="4.0" font-weight="bold" font-family="Helvetica Neue, Helvetica, Arial-Unicode, Arial, Sans-serif" fill="#000000">from the Noun Project</text></svg>