<svg xmlns="http://www.w3.org/2000/svg" xmlns:xlink="http://www.w3.org/1999/xlink" version="1.1" width="96" height="96" viewBox="4.8 -9.6 96.0 129.6">
<path d="M76.016 49.28c-3.416 0-6.204-2.812-6.204-6.256 0-3.44 2.78-6.252 6.204-6.252s6.204 2.812 6.204 6.252c0 3.444-2.784 6.256-6.204 6.256zM76.016 40.764c-1.212 0-2.204 1.016-2.204 2.252 0 1.252 0.992 2.252 2.204 2.252 1.22 0 2.204-1.008 2.204-2.252 0-1.236-0.984-2.252-2.204-2.252z" fill="#000000"/>
	<path d="M57.852 79.82c-0.204 0-0.416-0.032-0.616-0.1l-9.524-3.084c-1.040-0.34-1.616-1.44-1.292-2.496l2.736-8.856c-9.48-1.096-18.9-3.584-28.080-7.416-0.416 1.844-1.324 4.252-3.312 6.296-2.62 2.688-6.368 4.056-11.148 4.056l-0.728-0.008c-0.668-0.016-1.28-0.372-1.636-0.936-0.356-0.572-0.412-1.276-0.136-1.884 0.26-0.584 6.272-14.352-3.788-29.448-0.504-0.752-0.436-1.752 0.168-2.424 0.248-0.272 2.52-2.74 6.164-2.74 4.824 0 9.252 4.204 13.18 12.5 2.868-2.284 8.256-6.5 12.904-9.64l-4.424-5.072c-0.424-0.484-0.588-1.148-0.44-1.776 0.148-0.62 0.584-1.14 1.18-1.388l21.784-9.072c0.812-0.344 1.752-0.1 2.312 0.584l7.436 9.020 0.156-0.004c14.056 0 25.804 7.192 34.936 21.384 0.532 0.828 0.384 1.924-0.36 2.584l-3.592 3.172 1.32 1.212c0.416 0.388 0.648 0.916 0.656 1.468 0 0.568-0.236 1.084-0.64 1.468-0.328 0.304-8.244 7.46-25.236 8.532-0.4 0.024-0.82 0.060-1.256 0.076l-6.952 12.956c-0.368 0.644-1.044 1.036-1.772 1.036zM50.82 73.42l6.072 1.976 6.704-12.5c0.336-0.624 0.976-1.028 1.688-1.060l0.524-0.024c0.592-0.016 1.212-0.044 1.756-0.084 11.196-0.708 18.024-4.216 21.008-6.156l-1.18-1.084c-0.416-0.384-0.656-0.92-0.648-1.488 0-0.576 0.252-1.104 0.672-1.484l3.952-3.5c-8.196-12.016-18.492-18.108-30.624-18.108l-1.032 0.012c-0.556 0.016-1.212-0.252-1.592-0.732l-7.1-8.612-17.856 7.428 4.112 4.72c0.384 0.428 0.556 1.024 0.472 1.592-0.080 0.584-0.412 1.092-0.908 1.408-6.572 4.172-16.388 12.188-16.488 12.26-0.488 0.412-1.14 0.548-1.744 0.404-0.612-0.148-1.116-0.584-1.364-1.164-4.596-10.836-8.6-12.464-10.576-12.464-0.784 0-1.468 0.252-2 0.524 7.416 12.276 5.62 23.608 4.132 28.796 2.58-0.32 4.612-1.216 6.060-2.688 2.588-2.632 2.556-6.344 2.552-6.388-0.012-0.68 0.328-1.328 0.896-1.704 0.572-0.38 1.3-0.44 1.916-0.168 10.488 4.668 20.868 7.416 31.74 8.408 0.592 0.064 1.14 0.384 1.476 0.884s0.428 1.132 0.252 1.708l-2.872 9.288z" fill="#000000"/>
<text x="0.0" y="112.8" font-size="4.8" font-weight="bold" font-family="Helvetica Neue, Helvetica, Arial-Unicode, Arial, Sans-serif" fill="#000000">Created by iconsmind.com</text><text x="0.0" y="117.6" font-size="4.8" font-weight="bold" font-family="Helvetica Neue, Helvetica, Arial-Unicode, Arial, Sans-serif" fill="#000000">from the Noun Project</text></svg>