<svg xmlns="http://www.w3.org/2000/svg" xmlns:xlink="http://www.w3.org/1999/xlink" version="1.1" id="Your_Icon" x="0px" y="0px" width="100px" height="100px" viewBox="5.0 -10.0 100.0 135.0" enable-background="new 0 0 100 100" xml:space="preserve">
<g>
	<g>
		<g>
			<g>
			</g>
		</g>
		<g>
		</g>
	</g>
</g>
<ellipse fill-rule="evenodd" clip-rule="evenodd" cx="49.55" cy="49.25" rx="7.35" ry="9.15"/>
<path fill-rule="evenodd" clip-rule="evenodd" d="M85.835,34.52c0.588-0.522,0.888-1.242,0.888-2.157  c0-0.819-0.281-1.512-0.849-2.073c-0.567-0.558-1.26-0.843-2.088-0.843c-0.84,0-1.548,0.285-2.127,0.843  c-0.576,0.561-0.867,1.254-0.867,2.073c0,0.93,0.294,1.65,0.894,2.169c0.601,0.51,1.3,0.768,2.101,0.768  C84.561,35.3,85.247,35.036,85.835,34.52z"/>
<path fill-rule="evenodd" clip-rule="evenodd" d="M74.786,15.035c0.521,0.546,1.167,0.816,1.929,0.816  c1.296,0,2.175-0.747,2.64-2.244c0.489-1.467,1.09-2.58,1.798-3.339c0.708-0.753,1.809-1.137,3.314-1.137  c1.275,0,2.322,0.372,3.135,1.113c0.808,0.744,1.216,1.659,1.216,2.733c0,0.555-0.136,1.068-0.402,1.539  c-0.272,0.474-0.601,0.9-0.993,1.287c-0.393,0.387-1.028,0.958-1.914,1.71c-1.008,0.861-1.809,1.608-2.396,2.235  c-0.598,0.627-1.071,1.359-1.432,2.187c-0.356,0.831-0.533,1.815-0.533,2.943c0,0.906,0.23,1.587,0.698,2.046  c0.468,0.462,1.041,0.687,1.729,0.687c1.308,0,2.094-0.699,2.343-2.109c0.165-0.654,0.285-1.119,0.366-1.383  c0.081-0.261,0.197-0.525,0.348-0.789c0.15-0.264,0.378-0.555,0.685-0.873c0.303-0.312,0.714-0.681,1.221-1.101  c1.674-1.47,2.835-2.514,3.483-3.138c0.642-0.624,1.202-1.362,1.674-2.22c0.468-0.858,0.708-1.851,0.708-2.994  c0-1.44-0.414-2.781-1.233-4.011c-0.816-1.227-1.978-2.202-3.483-2.916C88.181,5.36,86.441,5,84.467,5  c-2.127,0-3.99,0.426-5.583,1.263c-1.596,0.846-2.811,1.911-3.642,3.198C74.414,10.745,74,12.014,74,13.265  C74,13.898,74.261,14.489,74.786,15.035z"/>
<path fill-rule="evenodd" clip-rule="evenodd" d="M69.014,44.561c0,10.725-9,19.35-19.35,19.35c-6.975,0-15.525-4.425-18.45-13.8  c-0.075-0.375-0.75-3.45-0.75-3.975v-3.075c1.35-11.775,10.575-17.7,19.275-17.7C60.389,25.361,69.014,34.136,69.014,44.561z   M74.114,44.561c0,13.725-10.875,24.45-24.375,24.45c-8.475,0-18.075-4.125-22.95-15.675c-0.3-0.9-1.5-5.325-1.5-6.9v-3.6  c1.575-15.225,13.275-22.65,24.375-22.65C63.389,20.186,74.114,30.986,74.114,44.561z"/>
<path fill-rule="evenodd" clip-rule="evenodd" d="M5,78.656c1.965-0.888,3.909-2.19,5.739-4.021c3.825,4.2,8.925,5.625,13.2,5.625  c4.2,0,8.925-1.5,13.05-5.399c4.05,3.975,8.775,5.399,12.975,5.399c4.275,0,9.075-1.425,13.275-5.625c3.825,4.2,9,5.625,13.2,5.625  c4.425,0,9.074-1.575,13.35-5.774c1.671,1.733,3.429,3.003,5.211,3.902V72.26c-0.834-0.66-1.746-1.527-2.286-2.273  c-0.375-0.525-0.75-1.2-1.2-1.65c-0.824-0.75-1.125-0.6-1.8-0.6c-0.6,0-1.05-0.15-1.649,0.524c-0.825,0.825-1.426,1.875-2.176,2.775  c-1.574,1.575-3.225,2.55-4.725,3.149c-1.575,0.601-3.15,0.976-4.725,0.976c-2.4,0-5.7-0.976-7.875-2.7  c-1.426-1.05-2.476-2.7-3.525-3.825c-0.6-0.6-1.2-0.675-1.875-0.675c-0.15,0-0.45-0.075-0.525,0  c-0.375,0.075-0.824,0.226-1.125,0.525c-0.75,0.75-1.35,1.725-2.024,2.55c-1.575,1.575-3.226,2.55-4.726,3.149  c-1.725,0.75-3.225,0.976-4.8,0.976c-1.425,0-2.7-0.226-4.125-0.75c-1.125-0.375-2.625-1.125-3.675-1.95  c-1.35-0.975-2.4-2.55-3.375-3.6c-0.6-0.601-1.2-0.675-1.875-0.675c-0.15,0-0.45-0.075-0.525,0c-0.525,0.074-1.05,0.3-1.275,0.675  c-3.225,4.425-7.575,6.3-11.175,6.3c-1.65,0-3.15-0.3-4.8-0.976c-1.875-0.75-4.125-2.324-5.625-4.199  c-0.375-0.45-0.6-0.976-0.975-1.351c-0.6-0.6-1.2-0.675-1.875-0.675c-0.15,0-0.45-0.075-0.525,0c-0.375,0.075-0.975,0.226-1.2,0.601  C8.204,69.416,6.677,71.417,5,72.695V78.656z"/>
<path fill-rule="evenodd" clip-rule="evenodd" d="M95,87.431c-1.894,1.002-3.987,1.53-6.036,1.53c-0.149,0-1.725-0.15-2.475-0.3  c-0.601-0.075-1.351-0.375-1.875-0.525c-1.95-0.6-4.125-2.024-5.7-3.975c-0.525-0.675-0.975-1.5-1.575-2.101  c-0.375-0.3-1.35-0.6-1.649-0.6c-0.525,0-1.5,0.15-1.801,0.675c-1.274,1.726-3.375,4.2-5.25,5.101  c-0.524,0.225-1.125,0.6-1.574,0.75c-1.575,0.6-3.15,0.975-4.726,0.975c-1.35,0-2.774-0.3-3.975-0.675  c-2.175-0.675-4.5-2.101-6.375-4.425c-0.375-0.525-0.75-1.2-1.125-1.5c-0.975-0.75-1.05-0.601-1.8-0.601c-0.15,0-0.45-0.075-0.525,0  c-0.525,0.075-1.125,0.3-1.35,0.75c-3,4.575-7.8,6.45-11.325,6.45c-1.425,0-2.7-0.225-4.125-0.75c-2.1-0.675-4.35-2.025-6.15-4.35  c-0.3-0.45-0.675-1.051-0.975-1.275c-0.975-0.75-1.05-0.6-1.8-0.6c-0.15,0-0.45-0.075-0.525,0c-0.525,0.074-1.05,0.3-1.275,0.675  c-3,4.2-7.5,6.3-11.175,6.3c-1.65,0-3.15-0.3-4.8-0.975L5,87.971v5.467c1.656,0.44,3.294,0.623,4.839,0.623  c4.2,0,8.85-1.5,13.05-5.475c3.975,3.975,8.775,5.475,12.9,5.475c4.275,0,9-1.35,13.35-5.625c4.05,4.2,8.925,5.625,13.125,5.625  c4.5,0,8.851-1.425,13.426-5.774c4.199,4.35,8.925,5.774,13.274,5.774c2.097,0,4.134-0.356,6.036-1.02V87.431z"/>
<path fill-rule="evenodd" clip-rule="evenodd" d="M46.7,34.25c0,1.575-0.825,5.25-3.75,5.25c-2.4,0-3.75-3.075-3.75-4.575v-1.35  C39.275,31.7,40.625,29,42.95,29C45.875,29,46.7,32.6,46.7,34.25z"/>
<path fill-rule="evenodd" clip-rule="evenodd" d="M59.6,34.25c0,1.575-0.899,5.25-3.75,5.25c-2.324,0-3.75-2.925-3.75-4.5v-1.5  c0.226-2.175,1.575-4.5,3.75-4.5C58.7,29,59.6,32.6,59.6,34.25z"/>
<path fill-rule="evenodd" clip-rule="evenodd" d="M18.425,19.55c0,1.5-1.5,2.775-2.775,2.775c-1.5,0-2.775-1.5-2.775-2.775  c0-1.35,1.275-2.775,2.775-2.775S18.425,18.2,18.425,19.55z M23.6,19.55c0,4.35-3.6,7.95-7.95,7.95c-4.425,0-7.95-3.6-7.95-7.95  c0-4.425,3.525-7.95,7.95-7.95C20,11.6,23.6,15.125,23.6,19.55z"/>
<path fill-rule="evenodd" clip-rule="evenodd" d="M80.825,65.45c0,1.5-1.5,2.774-2.775,2.774c-1.5,0-2.774-1.425-2.774-2.774  c0-1.575,1.274-2.775,2.699-2.775C79.475,62.675,80.825,63.95,80.825,65.45z M86,65.45c0,4.35-3.6,7.95-7.95,7.95  c-4.425,0-7.95-3.601-7.95-7.95c0-4.425,3.525-7.95,7.95-7.95C82.4,57.5,86,61.025,86,65.45z"/>
<path fill-rule="evenodd" clip-rule="evenodd" d="M16.775,32.036c0,0.825-0.9,3.45-0.9,7.35c0,2.025,0.225,4.5,0.6,6.6  c0.375,2.025,0.825,4.2,1.425,6.3c0.3,1.275,0.675,2.55,1.2,3.825c1.725,4.2,3.3,8.7,7.5,12.899c0.225,0.226,0.675,0.45,0.975,0.825  c0.375,0.3,0.75,1.275,0.75,1.8c0,1.5-1.35,2.476-2.55,2.476c-1.725,0-3.3-1.5-4.875-3.525c-4.575-6-7.65-14.325-8.7-19.875  c-0.375-2.1-1.425-6.75-1.425-9.375v-3.975c0.6-2.475-0.15-7.875,3.45-7.875C15.8,29.486,16.775,30.611,16.775,32.036z"/>
<text x="0.0" y="117.5" font-size="5.0" font-weight="bold" font-family="Helvetica Neue, Helvetica, Arial-Unicode, Arial, Sans-serif" fill="#000000">Created by Pieter J. Smits</text><text x="0.0" y="122.5" font-size="5.0" font-weight="bold" font-family="Helvetica Neue, Helvetica, Arial-Unicode, Arial, Sans-serif" fill="#000000">from the Noun Project</text></svg>