<svg xmlns="http://www.w3.org/2000/svg" xmlns:xlink="http://www.w3.org/1999/xlink" version="1.1" width="96" height="96" viewBox="4.8 -9.6 96.0 129.6">
<path d="M48.252 95.416h-0.612c-28.008 0-47.576-14.228-47.576-34.588 0-18.656 1.924-40.304 16.212-59.432 0.652-0.872 1.884-1.068 2.76-0.42l3.104 2.188c8.008 5.584 16.26 11.368 17.616 18.924 6.236-0.604 9.86-0.652 16.4 0.060 1.364-7.428 9.408-13 17.208-18.404 1.26-0.868 2.52-1.744 3.74-2.596 0.884-0.632 2.108-0.436 2.756 0.42 14.128 18.916 16.080 39.664 16.080 59.252-0.004 20.368-19.612 34.596-47.688 34.596zM18.336 5.352c-12.512 17.724-14.272 37.108-14.272 55.468 0 18.008 17.916 30.584 43.576 30.584h0.612c25.728 0 43.696-12.584 43.696-30.584 0-18.352-1.752-37.728-14.136-55.284-0.716 0.5-1.436 1-2.16 1.5-7.72 5.332-15.688 10.844-15.688 17.228 0 0.58-0.252 1.164-0.672 1.552-0.428 0.384-0.988 0.596-1.572 0.54-8.212-1-11.496-0.928-19.552-0.084-0.556 0.064-1.124-0.116-1.544-0.504-0.42-0.38-0.664-0.916-0.664-1.492 0-6.588-8.192-12.328-16.104-17.868l-1.52-1.056z" fill="#000000"/>
	<path d="M30.664 53.752c-3.416 0-6.196-2.744-6.196-6.096 0-3.372 2.776-6.1 6.196-6.1 3.416 0 6.196 2.748 6.196 6.1s-2.776 6.096-6.196 6.096zM30.664 45.54c-1.216 0-2.196 0.94-2.196 2.096 0 1.16 0.98 2.092 2.196 2.092 1.212 0 2.196-0.936 2.196-2.092s-0.988-2.096-2.196-2.096z" fill="#000000"/>
	<path d="M64.872 53.752c-3.416 0-6.196-2.744-6.196-6.096 0-3.372 2.78-6.1 6.196-6.1s6.2 2.748 6.2 6.1c-0.008 3.352-2.784 6.096-6.2 6.096zM64.872 45.54c-1.212 0-2.196 0.94-2.196 2.096 0 1.16 0.984 2.092 2.196 2.092 1.216 0 2.2-0.936 2.2-2.092-0.008-1.152-0.988-2.096-2.2-2.096z" fill="#000000"/>
	<path d="M46.252 69.928c-0.576 0-1.112-0.252-1.5-0.672l-9.312-10.512c-0.52-0.584-0.644-1.428-0.328-2.148 0.324-0.724 1.040-1.18 1.824-1.18h18.088c0.776 0 1.484 0.448 1.812 1.156 0.328 0.704 0.224 1.532-0.276 2.124l-8.78 10.516c-0.372 0.44-0.92 0.712-1.504 0.72-0.008-0.004-0.016-0.004-0.024-0.004zM41.384 59.416l4.824 5.452 4.56-5.452h-9.384z" fill="#000000"/>
	<path d="M45.956 81.416c-1.104 0-2-0.892-2-2v-12c0-1.096 0.896-2 2-2 1.096 0 2 0.904 2 2v12c0 1.108-0.896 2-2 2z" fill="#000000"/>
	<path d="M56.476 65.804c-0.944 0-1.784-0.664-1.964-1.62-0.204-1.084 0.508-2.128 1.588-2.336l21.104-3.984c1.084-0.204 2.132 0.52 2.336 1.588 0.208 1.084-0.508 2.132-1.584 2.336l-21.108 3.984c-0.12 0.024-0.248 0.032-0.372 0.032z" fill="#000000"/>
	<path d="M56.476 74.008c-0.944 0-1.784-0.664-1.964-1.624-0.204-1.084 0.508-2.132 1.596-2.336l21.1-3.976c1.084-0.204 2.132 0.508 2.332 1.584 0.208 1.084-0.508 2.14-1.588 2.336l-21.108 3.976c-0.116 0.032-0.244 0.040-0.368 0.040z" fill="#000000"/>
	<path d="M35.636 65.804c-0.124 0-0.252-0.008-0.376-0.032l-21.104-3.984c-1.084-0.204-1.8-1.252-1.592-2.336s1.264-1.796 2.336-1.584l21.108 3.98c1.084 0.208 1.8 1.252 1.588 2.336-0.18 0.956-1.012 1.62-1.96 1.62z" fill="#000000"/>
	<path d="M35.636 74.008c-0.124 0-0.252-0.008-0.376-0.032l-21.104-3.976c-1.084-0.204-1.8-1.252-1.596-2.336 0.208-1.084 1.252-1.804 2.332-1.592l21.108 3.976c1.084 0.204 1.8 1.252 1.592 2.336-0.176 0.96-1.008 1.624-1.956 1.624z" fill="#000000"/>
<text x="0.0" y="112.8" font-size="4.8" font-weight="bold" font-family="Helvetica Neue, Helvetica, Arial-Unicode, Arial, Sans-serif" fill="#000000">Created by iconsmind.com</text><text x="0.0" y="117.6" font-size="4.8" font-weight="bold" font-family="Helvetica Neue, Helvetica, Arial-Unicode, Arial, Sans-serif" fill="#000000">from the Noun Project</text></svg>