<svg xmlns="http://www.w3.org/2000/svg" xmlns:xlink="http://www.w3.org/1999/xlink" version="1.1" width="96" height="96" viewBox="4.8 -9.6 96.0 129.6">
<path d="M92.648 96c-0.024 0-0.056 0-0.080 0h-7.968c-1.096 0-2-0.9-2-2 0-20.212-2.844-33.78-8.68-41.344-4.908 7.244-9.016 16.892-9.016 41.344 0 1.1-0.896 2-2 2h-16.156c-1.104 0-2-0.9-2-2 0-6.884-4.348-12.488-9.696-12.488s-9.692 5.604-9.692 12.488c0 1.1-0.9 2-2 2h-20.012c-1.104 0-2-0.9-2-2 0-52.708 20.472-94 46.608-94 26.052 0 46.464 41 46.612 93.436 0.056 0.18 0.084 0.368 0.084 0.564-0.004 1.1-0.9 2-2.004 2zM86.592 92h3.96c-0.496-48.704-19.42-88-42.604-88-23.18 0-42.092 39.296-42.596 88h16.104c0.824-8.152 6.604-14.488 13.596-14.488s12.768 6.336 13.592 14.488h12.26c0.252-26.508 5.448-35.844 11.228-43.756 0.348-0.476 0.888-0.768 1.468-0.82 0.588-0.040 1.164 0.18 1.584 0.6 7.46 7.64 11.2 22.040 11.408 43.976z" fill="#000000"/>
	<path d="M62.644 41.672c-3.472 0-6.296-2.82-6.296-6.28 0-3.468 2.828-6.28 6.296-6.28 3.472 0 6.3 2.824 6.3 6.28 0 3.46-2.828 6.28-6.3 6.28zM62.644 33.1c-1.26 0-2.296 1.024-2.296 2.276s1.036 2.276 2.296 2.276c1.268 0 2.3-1.024 2.3-2.276 0-1.248-1.028-2.276-2.3-2.276z" fill="#000000"/>
	<path d="M57.016 51.452c-13.448 0-24.976-9.812-26.356-23.008-1.4-13.368 9.024-25.596 23.232-27.264 1.084-0.128 2.084 0.652 2.22 1.752 0.124 1.092-0.656 2.088-1.752 2.224-10.504 1.24-21.032 10.336-19.72 22.888 1.252 11.928 12.396 20.584 24.848 19.284 1.092-0.112 2.084 0.68 2.2 1.776 0.112 1.092-0.68 2.084-1.776 2.196-0.984 0.108-1.948 0.152-2.896 0.152z" fill="#000000"/>
<text x="0.0" y="112.8" font-size="4.8" font-weight="bold" font-family="Helvetica Neue, Helvetica, Arial-Unicode, Arial, Sans-serif" fill="#000000">Created by iconsmind.com</text><text x="0.0" y="117.6" font-size="4.8" font-weight="bold" font-family="Helvetica Neue, Helvetica, Arial-Unicode, Arial, Sans-serif" fill="#000000">from the Noun Project</text></svg>